<svg width="35" height="35" viewBox="0 0 35 35" fill="none" xmlns="http://www.w3.org/2000/svg">
<g filter="url(#filter0_i)">
<rect x="0.710938" y="0.982788" width="33.9573" height="33.8824" rx="16.9412" fill="#C6D7E0"/>
</g>
<path d="M25.1856 23.5197L21.4001 20.3079C21.0086 19.9561 20.5901 19.7957 20.2525 19.8106C21.2572 18.6353 21.7669 17.1175 21.6749 15.5755C21.5829 14.0335 20.8963 12.5869 19.759 11.5387C18.6217 10.4905 17.1219 9.92222 15.574 9.95284C14.026 9.98345 12.55 10.6106 11.4552 11.7029C10.3604 12.7952 9.73181 14.2679 9.70113 15.8123C9.67045 17.3568 10.2401 18.8531 11.2906 19.9879C12.3411 21.1226 13.7911 21.8076 15.3366 21.8994C16.8821 21.9912 18.4033 21.4827 19.5813 20.4803C19.5654 20.8171 19.7272 21.2347 20.0797 21.6253L23.2989 25.4021C23.8502 26.013 24.7501 26.0648 25.2994 25.5167C25.8488 24.9687 25.7968 24.0698 25.1846 23.5207L25.1856 23.5197ZM15.693 19.9163C14.6334 19.9163 13.6173 19.4963 12.868 18.7488C12.1188 18.0012 11.6979 16.9873 11.6979 15.9301C11.6979 14.873 12.1188 13.8591 12.868 13.1115C13.6173 12.364 14.6334 11.944 15.693 11.944C16.7526 11.944 17.7688 12.364 18.5181 13.1115C19.2673 13.8591 19.6882 14.873 19.6882 15.9301C19.6882 16.9873 19.2673 18.0012 18.5181 18.7488C17.7688 19.4963 16.7526 19.9163 15.693 19.9163Z" fill="white"/>
<defs>
<filter id="filter0_i" x="0.710938" y="0.982788" width="34.9573" height="34.8824" filterUnits="userSpaceOnUse" color-interpolation-filters="sRGB">
<feFlood flood-opacity="0" result="BackgroundImageFix"/>
<feBlend mode="normal" in="SourceGraphic" in2="BackgroundImageFix" result="shape"/>
<feColorMatrix in="SourceAlpha" type="matrix" values="0 0 0 0 0 0 0 0 0 0 0 0 0 0 0 0 0 0 127 0" result="hardAlpha"/>
<feOffset dx="1" dy="1"/>
<feGaussianBlur stdDeviation="1"/>
<feComposite in2="hardAlpha" operator="arithmetic" k2="-1" k3="1"/>
<feColorMatrix type="matrix" values="0 0 0 0 0 0 0 0 0 0 0 0 0 0 0 0 0 0 0.25 0"/>
<feBlend mode="normal" in2="shape" result="effect1_innerShadow"/>
</filter>
</defs>
</svg>
