<svg width="14" height="12" viewBox="0 0 14 12" fill="none" xmlns="http://www.w3.org/2000/svg">
<g filter="url(#filter0_i)">
<path d="M4.35406 0.21283H4.35363C2.87727 0.21283 1.71465 1.08337 1.16367 2.60093C-0.0903879 6.05713 4.46283 9.08631 6.40696 10.3795C6.72005 10.5876 7.07473 10.8237 7.14449 10.8974L7.41619 11.2128L7.71887 10.9286C7.76914 10.8837 8.00162 10.7326 8.2263 10.5865C10.0907 9.37473 15.0424 6.15547 13.73 2.59653C13.1741 1.08799 12.0095 0.22273 10.536 0.22273C9.29143 0.22273 8.06034 0.83059 7.43482 1.66461C6.78873 0.81783 5.57324 0.21283 4.35406 0.21283Z" fill="#C6D7E0"/>
</g>
<defs>
<filter id="filter0_i" x="0.948486" y="0.21283" width="14" height="12" filterUnits="userSpaceOnUse" color-interpolation-filters="sRGB">
<feFlood flood-opacity="0" result="BackgroundImageFix"/>
<feBlend mode="normal" in="SourceGraphic" in2="BackgroundImageFix" result="shape"/>
<feColorMatrix in="SourceAlpha" type="matrix" values="0 0 0 0 0 0 0 0 0 0 0 0 0 0 0 0 0 0 127 0" result="hardAlpha"/>
<feOffset dx="1" dy="1"/>
<feGaussianBlur stdDeviation="1"/>
<feComposite in2="hardAlpha" operator="arithmetic" k2="-1" k3="1"/>
<feColorMatrix type="matrix" values="0 0 0 0 0 0 0 0 0 0 0 0 0 0 0 0 0 0 0.25 0"/>
<feBlend mode="normal" in2="shape" result="effect1_innerShadow"/>
</filter>
</defs>
</svg>
