<svg width="14" height="12" viewBox="0 0 14 12" fill="none" xmlns="http://www.w3.org/2000/svg">
<g filter="url(#filter0_i)">
<path d="M4.35406 0.294739H4.35363C2.87727 0.294739 1.71465 1.16528 1.16367 2.68284C-0.0903879 6.13904 4.46283 9.16822 6.40696 10.4614C6.72005 10.6695 7.07473 10.9056 7.14449 10.9793L7.41619 11.2947L7.71887 11.0105C7.76914 10.9656 8.00162 10.8145 8.2263 10.6684C10.0907 9.45664 15.0424 6.23738 13.73 2.67844C13.1741 1.1699 12.0095 0.304639 10.536 0.304639C9.29143 0.304639 8.06034 0.912499 7.43482 1.74652C6.78873 0.899739 5.57324 0.294739 4.35406 0.294739Z" fill="#C6D7E0"/>
</g>
<defs>
<filter id="filter0_i" x="0.948486" y="0.294739" width="14" height="12" filterUnits="userSpaceOnUse" color-interpolation-filters="sRGB">
<feFlood flood-opacity="0" result="BackgroundImageFix"/>
<feBlend mode="normal" in="SourceGraphic" in2="BackgroundImageFix" result="shape"/>
<feColorMatrix in="SourceAlpha" type="matrix" values="0 0 0 0 0 0 0 0 0 0 0 0 0 0 0 0 0 0 127 0" result="hardAlpha"/>
<feOffset dx="1" dy="1"/>
<feGaussianBlur stdDeviation="1"/>
<feComposite in2="hardAlpha" operator="arithmetic" k2="-1" k3="1"/>
<feColorMatrix type="matrix" values="0 0 0 0 0 0 0 0 0 0 0 0 0 0 0 0 0 0 0.25 0"/>
<feBlend mode="normal" in2="shape" result="effect1_innerShadow"/>
</filter>
</defs>
</svg>
