<svg width="189" height="19" viewBox="0 0 189 19" fill="none" xmlns="http://www.w3.org/2000/svg">
<path d="M3.73233 8.08521V0.89624H0V18.8962H3.73233V11.6889V8.08521Z" fill="#303948"/>
<path d="M184.899 0.89624V8.08521V11.6889V18.8962H188.632V0.89624H184.899Z" fill="#303948"/>
<path d="M6.85532 0.89624H0V4.48153H6.85532V0.89624Z" fill="#303948"/>
<path d="M6.85532 15.3109H0V18.8962H6.85532V15.3109Z" fill="#303948"/>
<path d="M188.613 0.89624H181.757V4.48153H188.613V0.89624Z" fill="#303948"/>
<path d="M188.613 15.3109H181.757V18.8962H188.613V15.3109Z" fill="#303948"/>
<path d="M167.166 15.2926H152.256V4.48153H161.568V0.89624H148.524V18.8962H170.898V13.4907H167.166V15.2926Z" fill="#303948"/>
<path d="M165.3 0.89624V4.48153H167.166V6.28337H170.898V0.89624H165.3Z" fill="#A074FF"/>
<path d="M128.67 0.89624H124.938V18.8778H128.67V0.89624Z" fill="#303948"/>
<path d="M120.999 6.7798C121.684 5.51115 122.008 4.1322 122.008 2.67969V0.89624H99.6334V4.48153H117.952C117.552 5.54793 116.886 6.41207 115.953 7.07397C114.982 7.75426 113.896 8.08521 112.696 8.08521H99.6334V18.8962H103.366V11.6889H112.696C114.239 11.6889 115.553 12.2221 116.657 13.2701C117.743 14.3365 118.295 15.6051 118.295 17.0944V18.8962H122.027V17.0944C122.027 15.6419 121.684 14.2997 121.018 13.0127C120.371 11.7624 119.457 10.7328 118.314 9.88705C119.437 9.04129 120.332 8.01166 120.999 6.7798Z" fill="#303948"/>
<path d="M106.489 15.3109H99.6334V18.8962H106.489V15.3109Z" fill="#303948"/>
<path d="M66.8098 0.89624V4.48153H85.4523C85.4523 5.47438 85.0905 6.32014 84.3669 7.01881C83.6433 7.71749 82.7673 8.08521 81.739 8.08521H66.8098V18.8962H70.5421V11.6889H81.739C83.7956 11.6889 85.5475 10.9902 87.0138 9.59287C88.461 8.17714 89.1846 6.48562 89.1846 4.49992V0.89624H66.8098Z" fill="#303948"/>
<path d="M30.2289 8.06677H26.4966V18.8778H30.2289V8.06677Z" fill="#303948"/>
<path d="M17.7944 0.89624V4.48153H24.2688H26.4968H30.2291H32.7427H38.9314V0.89624H17.7944Z" fill="#303948"/>
<path d="M124.938 0.89624V4.48153H131.412H133.64H137.372H139.886H146.075V0.89624H124.938Z" fill="#303948"/>
<path d="M124.938 15.2925V18.8778H131.412H133.64H137.372H139.886H146.075V15.2925H124.938Z" fill="#303948"/>
<path d="M124.938 8.10364V11.6889H131.412H133.64H137.372H139.886H146.075V8.10364H124.938Z" fill="#303948"/>
<path d="M61.9183 2.99226C60.4521 1.59491 58.7001 0.89624 56.6436 0.89624V4.48153C57.6719 4.48153 58.5478 4.83087 59.2714 5.54793C59.995 6.2466 60.3568 7.09236 60.3568 8.08521V15.2926H49.179C48.1507 15.2926 47.2747 14.9432 46.5511 14.2262C45.8275 13.5275 45.4467 12.6817 45.4467 11.6889V4.48153H52.8922V0.89624H41.7144V11.6889C41.7144 13.6746 42.438 15.3661 43.9042 16.7818C45.3515 18.1976 47.1033 18.8962 49.179 18.8962H64.0891V8.08521C64.0891 6.09951 63.3655 4.40799 61.9183 2.99226Z" fill="#303948"/>
</svg>
